<?xml version="1.0" encoding="UTF-8" standalone="no" ?>
<!DOCTYPE svg PUBLIC "-//W3C//DTD SVG 1.1//EN" "http://www.w3.org/Graphics/SVG/1.1/DTD/svg11.dtd">
<svg xmlns="http://www.w3.org/2000/svg" xmlns:xlink="http://www.w3.org/1999/xlink" version="1.1" width="1280" height="1024" viewBox="0 0 1280 1024" xml:space="preserve">
<desc>Created with Fabric.js 5.3.0</desc>
<defs>
</defs>
<g transform="matrix(1 0 0 1 640 512)" id="background-logo"  >
<rect style="stroke: none; stroke-width: 0; stroke-dasharray: none; stroke-linecap: butt; stroke-dashoffset: 0; stroke-linejoin: miter; stroke-miterlimit: 4; fill: rgb(255,255,255); fill-opacity: 0; fill-rule: nonzero; opacity: 1;"  paint-order="stroke"  x="-640" y="-512" rx="0" ry="0" width="1280" height="1024" />
</g>
<g transform="matrix(2.044732652598199 0 0 2.044732652598199 640 440.49656444087253)" id="logo-logo"  >
<g style=""  paint-order="stroke"   >
		<g transform="matrix(1.0409584010645323 0 0 1.0409584010645325 0 0)"  >
<g style=""  paint-order="stroke"   >
		<g transform="matrix(1 0 0 1 0 0)"  >
<path style="stroke: none; stroke-width: 1; stroke-dasharray: none; stroke-linecap: butt; stroke-dashoffset: 0; stroke-linejoin: miter; stroke-miterlimit: 4; fill: rgb(255,190,88); fill-rule: nonzero; opacity: 1;"  paint-order="stroke"  transform=" translate(-100, -98)" d="M 15.78 125.3 L 16.5 149.51999999999998 L 35.769999999999996 159.89 L 50 184.51 L 81.55 184.51 L 102.91 196 L 121.53999999999999 184.51 L 150 184.51 L 165.78 157.20999999999998 L 186.42000000000002 144.48 L 185.77 122.61999999999999 L 200 98 L 184.22 70.7 L 183.5 46.480000000000004 L 164.23 36.12 L 150 11.49 L 118.45 11.49 L 97.09 0 L 78.47 11.49 L 50 11.49 L 34.22 38.78 L 13.58 51.52 L 14.23 73.37 L 0 98 Z M 198.29 98 L 185.68 119.81 L 184.32 73.81 Z M 20.37 147.13 L 19.94 132.49 L 32 153.39 Z M 50.85 183 L 38.25 161.19 L 78.81 183 Z M 102.78 191.42 L 89.87 184.48 L 114 184.48 Z M 149.15 183 L 123.93 183 L 163.12 158.82 Z M 182.41 142.29 L 169.93 150 L 182 129.11 Z M 179.63 48.83999999999999 L 180.07 63.47999999999999 L 168 42.61 Z M 149.15 13 L 161.76 34.81 L 121.19 13 Z M 97.22 4.55 L 110.13 11.49 L 86 11.49 Z M 50.85 13 L 76.07 13 L 36.88 37.15 Z M 83.58 13 L 112.88 13 L 165.51 41.3 L 180.16 66.65 L 181.93 126.34 L 167.28 151.69 L 116.43 183 L 87.12 183 L 34.49 154.7 L 19.84 129.38 L 18.07 69.69 L 32.72 44.34 Z M 30.06 46 L 18 66.88 L 17.61 53.67999999999999 Z M 14.32 76.18 L 15.68 122.18 L 1.71 98 Z" stroke-linecap="round" />
</g>
</g>
</g>
</g>
</g>
<g transform="matrix(1.9211538461538462 0 0 1.9211538461538462 641.2080706842572 717.1248433291842)" id="text-logo"  >
<g style=""  paint-order="stroke"   >
		<g transform="matrix(1 0 0 1 0 0)" id="text-logo-path-0"  >
<linearGradient id="SVGID_284169" gradientUnits="userSpaceOnUse" gradientTransform="matrix(1 0 0 1 1.6999999999999886 -23.15)"  x1="-1.819000778198216" y1="-6.736760000000004" x2="-1.819000778198216" y2="31.263239999999996">
<stop offset="0%" style="stop-color:rgb(252,227,138);stop-opacity: 1"/>
<stop offset="100%" style="stop-color:rgb(243,129,129);stop-opacity: 1"/>
</linearGradient>
<path style="stroke: none; stroke-width: 0.39534883720930164; stroke-dasharray: none; stroke-linecap: butt; stroke-dashoffset: 0; stroke-linejoin: miter; stroke-miterlimit: 4; fill: url(#SVGID_284169); fill-rule: nonzero; opacity: 1;"  paint-order="stroke"  transform=" translate(-208.795, 11.389999999999999)" d="M 4.28 -7.07 L 1.7 -6.12 C 3.3 -1.8 6.39 0.34 11.02 0.34 C 15.95 0.34 19.41 -2.48 19.41 -6.29 C 19.41 -9.01 17.71 -10.61 15.64 -11.36 C 14.55 -11.76 13.19 -12.14 11.46 -12.55 C 8.5 -13.23 7.11 -13.67 6.02 -14.72 C 5.44 -15.27 5.17 -15.95 5.17 -16.8 C 5.17 -19.14 7.51 -20.74 10.51 -20.74 C 13.6 -20.74 15.23 -19.48 16.56 -16.15 L 19.07 -17.17 C 17.48 -21.18 14.72 -23.12 10.51 -23.12 C 6.02 -23.12 2.45 -20.47 2.45 -16.8 C 2.45 -13.91 4.28 -12.21 6.43 -11.39 C 7.55 -10.95 8.94 -10.54 10.74 -10.1 C 13.5 -9.42 14.86 -9.08 15.91 -8.13 C 16.42 -7.65 16.69 -7.04 16.69 -6.29 C 16.69 -3.74 14.52 -2.04 11.02 -2.04 C 7.31 -2.04 5.47 -3.74 4.28 -7.07 Z M 49.16 -22.78 L 49.16 -9.25 C 49.16 -5.1 46.07 -2.21 42.4 -2.21 C 38.45 -2.21 35.56 -5.2 35.56 -9.25 L 35.56 -22.78 L 32.84 -22.78 L 32.84 -9.25 C 32.84 -5.75 34.71 -2.69 37.64 -0.95 C 39.1 -0.1 40.66 0.34 42.4 0.34 C 45.8 0.34 48.93 -1.53 50.63 -4.45 C 51.48 -5.92 51.88 -7.51 51.88 -9.25 L 51.88 -22.78 Z M 68.03 0 L 68.03 -8.84 L 76.53 -8.84 C 80.44 -8.84 83.5 -11.9 83.5 -15.81 C 83.5 -19.72 80.44 -22.78 76.53 -22.78 L 65.31 -22.78 L 65.31 0 Z M 76.36 -11.22 L 68.03 -11.22 L 68.03 -20.4 L 76.36 -20.4 C 79.12 -20.4 80.95 -18.56 80.95 -15.81 C 80.95 -13.06 79.12 -11.22 76.36 -11.22 Z M 96.93 0 L 113.25 0 L 113.25 -2.38 L 99.65 -2.38 L 99.65 -10.2 L 111.21 -10.2 L 111.21 -12.58 L 99.65 -12.58 L 99.65 -20.4 L 113.25 -20.4 L 113.25 -22.78 L 96.93 -22.78 Z M 129.4 0 L 129.4 -9.49 L 135.97 -9.49 L 141.92 0 L 145.11 0 L 139.13 -9.59 C 142.43 -10.13 144.87 -12.82 144.87 -16.18 C 144.87 -19.89 141.78 -22.78 137.9 -22.78 L 126.68 -22.78 L 126.68 0 Z M 137.9 -11.83 L 129.4 -11.87 L 129.4 -20.4 L 137.73 -20.4 C 140.49 -20.4 142.32 -18.73 142.32 -16.18 C 142.32 -13.6 140.59 -11.9 137.9 -11.83 Z M 161.13 -7.07 L 158.54 -6.12 C 160.14 -1.8 163.23 0.34 167.86 0.34 C 172.79 0.34 176.26 -2.48 176.26 -6.29 C 176.26 -9.01 174.56 -10.61 172.48 -11.36 C 171.39 -11.76 170.03 -12.14 168.3 -12.55 C 165.34 -13.23 163.95 -13.67 162.86 -14.72 C 162.28 -15.27 162.01 -15.95 162.01 -16.8 C 162.01 -19.14 164.36 -20.74 167.35 -20.74 C 170.44 -20.74 172.07 -19.48 173.4 -16.15 L 175.92 -17.17 C 174.32 -21.18 171.56 -23.12 167.35 -23.12 C 162.86 -23.12 159.29 -20.47 159.29 -16.8 C 159.29 -13.91 161.13 -12.21 163.27 -11.39 C 164.39 -10.95 165.78 -10.54 167.59 -10.1 C 170.34 -9.42 171.7 -9.08 172.75 -8.13 C 173.26 -7.65 173.54 -7.04 173.54 -6.29 C 173.54 -3.74 171.36 -2.04 167.86 -2.04 C 164.15 -2.04 162.32 -3.74 161.13 -7.07 Z M 192.61 0 L 194.96 -5.61 L 206.38 -5.61 L 208.73 0 L 211.65 0 L 202.13 -22.78 L 199.21 -22.78 L 189.69 0 Z M 195.94 -7.99 L 200.67 -19.28 L 205.39 -7.99 Z M 225.08 0 L 241.4 0 L 241.4 -2.38 L 227.8 -2.38 L 227.8 -22.78 L 225.08 -22.78 Z M 278.49 -12.07 L 267.27 -12.07 L 267.27 -9.69 L 275.47 -9.69 C 274.86 -7.24 273.33 -5.03 271.22 -3.6 C 269.82 -2.69 268.29 -2.21 266.66 -2.21 C 263.36 -2.21 260.41 -3.94 258.77 -6.77 C 257.96 -8.16 257.55 -9.72 257.55 -11.39 C 257.55 -14.76 259.28 -17.71 262.11 -19.38 C 263.5 -20.2 265.03 -20.6 266.66 -20.6 C 269.93 -20.6 272.82 -18.9 274.45 -16.18 L 276.76 -17.51 C 274.62 -20.94 270.88 -23.15 266.66 -23.15 C 262.31 -23.15 258.47 -20.88 256.39 -17.27 C 255.34 -15.47 254.83 -13.5 254.83 -11.39 C 254.83 -7.17 257.07 -3.37 260.71 -1.22 C 262.51 -0.17 264.52 0.37 266.66 0.37 C 270.4 0.37 273.67 -1.53 275.77 -4.56 L 275.77 0 L 278.49 0 Z M 294.85 0 L 297.19 -5.61 L 308.62 -5.61 L 310.96 0 L 313.89 0 L 304.37 -22.78 L 301.44 -22.78 L 291.92 0 Z M 298.18 -7.99 L 302.91 -19.28 L 307.63 -7.99 Z M 336.23 0 C 340.41 0 344.08 -2.21 346.12 -5.71 C 347.14 -7.45 347.65 -9.35 347.65 -11.39 C 347.65 -15.47 345.51 -19.18 342.01 -21.25 C 340.27 -22.27 338.33 -22.78 336.23 -22.78 L 327.32 -22.78 L 327.32 0 Z M 336.23 -2.41 L 330.04 -2.41 L 330.04 -20.4 L 336.23 -20.4 C 339.35 -20.4 342.21 -18.67 343.77 -15.91 C 344.56 -14.52 344.93 -13.02 344.93 -11.39 C 344.93 -6.39 341.09 -2.41 336.23 -2.41 Z M 372.91 0.37 C 377.26 0.37 381.11 -1.94 383.18 -5.54 C 384.23 -7.34 384.74 -9.28 384.74 -11.39 C 384.74 -15.61 382.5 -19.41 378.86 -21.56 C 377.06 -22.61 375.05 -23.15 372.91 -23.15 C 368.56 -23.15 364.72 -20.88 362.64 -17.27 C 361.59 -15.47 361.08 -13.5 361.08 -11.39 C 361.08 -7.17 363.32 -3.37 366.96 -1.22 C 368.76 -0.17 370.77 0.37 372.91 0.37 Z M 372.91 -2.21 C 369.61 -2.21 366.66 -3.94 365.02 -6.77 C 364.21 -8.16 363.8 -9.72 363.8 -11.39 C 363.8 -14.76 365.53 -17.71 368.36 -19.38 C 369.75 -20.2 371.28 -20.6 372.91 -20.6 C 376.21 -20.6 379.17 -18.84 380.8 -16.01 C 381.62 -14.62 382.02 -13.06 382.02 -11.39 C 382.02 -8.02 380.29 -5.07 377.47 -3.43 C 376.07 -2.62 374.54 -2.21 372.91 -2.21 Z M 400.76 -7.07 L 398.17 -6.12 C 399.77 -1.8 402.87 0.34 407.49 0.34 C 412.42 0.34 415.89 -2.48 415.89 -6.29 C 415.89 -9.01 414.19 -10.61 412.11 -11.36 C 411.03 -11.76 409.67 -12.14 407.93 -12.55 C 404.97 -13.23 403.58 -13.67 402.49 -14.72 C 401.91 -15.27 401.64 -15.95 401.64 -16.8 C 401.64 -19.14 403.99 -20.74 406.98 -20.74 C 410.07 -20.74 411.71 -19.48 413.03 -16.15 L 415.55 -17.17 C 413.95 -21.18 411.2 -23.12 406.98 -23.12 C 402.49 -23.12 398.92 -20.47 398.92 -16.8 C 398.92 -13.91 400.76 -12.21 402.9 -11.39 C 404.02 -10.95 405.42 -10.54 407.22 -10.1 C 409.97 -9.42 411.33 -9.08 412.39 -8.13 C 412.9 -7.65 413.17 -7.04 413.17 -6.29 C 413.17 -3.74 410.99 -2.04 407.49 -2.04 C 403.78 -2.04 401.95 -3.74 400.76 -7.07 Z" stroke-linecap="round" />
</g>
</g>
</g>
<g transform="matrix(1.9211538461538462 0 0 1.9211538461538462 639.1997047570852 432.7523164408726)" id="tagline-3a0f327a-aafa-4e44-aa87-18cbd55f8865-logo"  >
<g style=""  paint-order="stroke"   >
		<g transform="matrix(1 0 0 1 0 0)" id="tagline-3a0f327a-aafa-4e44-aa87-18cbd55f8865-logo-path-0"  >
<linearGradient id="SVGID_284170" gradientUnits="userSpaceOnUse" gradientTransform="matrix(1 0 0 1 4.559999999999999 -80.37)"  x1="-4.503000869750963" y1="-19.85195999999999" x2="-4.503000869750963" y2="109.14804000000001">
<stop offset="0%" style="stop-color:rgb(252,227,138);stop-opacity: 1"/>
<stop offset="100%" style="stop-color:rgb(243,129,129);stop-opacity: 1"/>
</linearGradient>
<path style="stroke: none; stroke-width: 0.6333333333333335; stroke-dasharray: none; stroke-linecap: butt; stroke-dashoffset: 0; stroke-linejoin: miter; stroke-miterlimit: 4; fill: url(#SVGID_284170); fill-rule: nonzero; opacity: 1;"  paint-order="stroke"  transform=" translate(-31.58, 39.845)" d="M 31.24 -80.37 C 20.86 -80.37 5.13 -75.24 5.13 -60.99 C 5.13 -38.53 47.2 -33.74 47.2 -16.42 C 47.2 -10.15 42.52 -1.6 30.1 -1.6 C 20.18 -1.6 12.54 -5.47 6.38 -14.59 L 4.56 -12.77 C 9.35 -5.93 16.07 0.68 31.01 0.68 C 41.61 0.68 58.6 -6.16 58.6 -20.29 C 58.6 -42.75 16.53 -47.77 16.53 -64.18 C 16.53 -72.5 23.6 -77.63 31.69 -77.63 C 44.23 -77.63 53.69 -69.31 49.59 -66.01 C 48.34 -65.09 47.54 -63.61 47.54 -62.02 C 47.54 -59.17 49.7 -57 52.55 -57 C 55.29 -57 57.8 -59.39 57.46 -63.04 C 56.32 -71.02 47.54 -80.37 31.24 -80.37 Z" stroke-linecap="round" />
</g>
</g>
</g>
</svg>